<?xml version="1.0" encoding="UTF-8" standalone="no"?>
<!-- Created with Inkscape (http://www.inkscape.org/) -->
<svg
   xmlns:dc="http://purl.org/dc/elements/1.1/"
   xmlns:cc="http://creativecommons.org/ns#"
   xmlns:rdf="http://www.w3.org/1999/02/22-rdf-syntax-ns#"
   xmlns:svg="http://www.w3.org/2000/svg"
   xmlns="http://www.w3.org/2000/svg"
   xmlns:xlink="http://www.w3.org/1999/xlink"
   xmlns:sodipodi="http://sodipodi.sourceforge.net/DTD/sodipodi-0.dtd"
   xmlns:inkscape="http://www.inkscape.org/namespaces/inkscape"
   width="26"
   height="34"
   id="svg7594"
   sodipodi:version="0.32"
   inkscape:version="0.46"
   version="1.0"
   sodipodi:docname="hw_computer.svg"
   inkscape:output_extension="org.inkscape.output.svg.inkscape">
  <defs
     id="defs7596">
    <linearGradient
       id="linearGradient5628">
      <stop
         id="stop5630"
         offset="0"
         style="stop-color:#eee6d2;stop-opacity:1;" />
      <stop
         id="stop5632"
         offset="1"
         style="stop-color:#dac388;stop-opacity:1;" />
    </linearGradient>
    <radialGradient
       inkscape:collect="always"
       xlink:href="#linearGradient5628"
       id="radialGradient2899"
       gradientUnits="userSpaceOnUse"
       gradientTransform="matrix(3.543015,2.373681,-1.541928,2.30152,377.08,-1474.984)"
       cx="255.39285"
       cy="665.75568"
       fx="255.39285"
       fy="665.75568"
       r="6.5" />
    <radialGradient
       inkscape:collect="always"
       xlink:href="#linearGradient5628"
       id="radialGradient8734"
       gradientUnits="userSpaceOnUse"
       gradientTransform="matrix(3.543015,2.373681,-1.541928,2.30152,134.58,-2123.8462)"
       cx="255.39285"
       cy="665.75568"
       fx="255.39285"
       fy="665.75568"
       r="6.5" />
  </defs>
  <sodipodi:namedview
     id="base"
     pagecolor="#ffffff"
     bordercolor="#666666"
     borderopacity="1.0"
     inkscape:pageopacity="0.0"
     inkscape:pageshadow="2"
     inkscape:zoom="18.676471"
     inkscape:cx="13"
     inkscape:cy="17"
     inkscape:document-units="px"
     inkscape:current-layer="layer1"
     showgrid="false"
     inkscape:window-width="1360"
     inkscape:window-height="848"
     inkscape:window-x="40"
     inkscape:window-y="62"
     showguides="true"
     inkscape:guide-bbox="true" />
  <metadata
     id="metadata7599">
    <rdf:RDF>
      <cc:Work
         rdf:about="">
        <dc:format>image/svg+xml</dc:format>
        <dc:type
           rdf:resource="http://purl.org/dc/dcmitype/StillImage" />
        <dc:title>hw_computer</dc:title>
        <dc:date>2008-05-18</dc:date>
        <dc:creator>
          <cc:Agent>
            <dc:title>Jean Cartier</dc:title>
          </cc:Agent>
        </dc:creator>
        <cc:license
           rdf:resource="http://creativecommons.org/licenses/publicdomain/" />
        <dc:language>fr-FR</dc:language>
        <dc:subject>
          <rdf:Bag>
            <rdf:li>hardware</rdf:li>
            <rdf:li>computer</rdf:li>
          </rdf:Bag>
        </dc:subject>
        <dc:contributor>
          <cc:Agent>
            <dc:title>Jean-Victor Balin (jean.victor.balin@gmail.com)</dc:title>
          </cc:Agent>
        </dc:contributor>
        <dc:description>http://www.jcartier.net</dc:description>
      </cc:Work>
      <cc:License
         rdf:about="http://creativecommons.org/licenses/publicdomain/">
        <cc:permits
           rdf:resource="http://creativecommons.org/ns#Reproduction" />
        <cc:permits
           rdf:resource="http://creativecommons.org/ns#Distribution" />
        <cc:permits
           rdf:resource="http://creativecommons.org/ns#DerivativeWorks" />
      </cc:License>
    </rdf:RDF>
  </metadata>
  <g
     inkscape:label="Calque 1"
     inkscape:groupmode="layer"
     id="layer1">
    <path
       style="opacity:1;fill:#888888;fill-opacity:1;stroke:none;stroke-width:0.69999999;stroke-linecap:round;stroke-linejoin:round;stroke-miterlimit:4;stroke-dasharray:none"
       d=""
       id="path8460" />
    <path
       style="opacity:1;fill:#888888;fill-opacity:1;stroke:none;stroke-width:0.69999999;stroke-linecap:round;stroke-linejoin:round;stroke-miterlimit:4;stroke-dasharray:none"
       d=""
       id="path8462" />
    <path
       style="opacity:1;fill:#888888;fill-opacity:1;stroke:none;stroke-width:0.69999999;stroke-linecap:round;stroke-linejoin:round;stroke-miterlimit:4;stroke-dasharray:none"
       d=""
       id="path8464" />
    <g
       id="g8762">
      <path
         sodipodi:nodetypes="ccccc"
         id="path13180"
         d="M 2.5,8.5 L 16.5,1.5 L 23.5,5.5 L 10.5,12.5 L 2.5,8.5 z"
         style="fill:#eee6d2;fill-opacity:1;fill-rule:evenodd;stroke:none;stroke-width:1px;stroke-linecap:butt;stroke-linejoin:miter;stroke-opacity:1" />
      <path
         sodipodi:nodetypes="ccccc"
         id="path13182"
         d="M 2.5,8.5 L 2.5,28.5 C 2.5,28.5 2.55157,32.5 10.5,32.5 L 10.5,12.5 L 2.5,8.5 z"
         style="fill:#eee6d2;fill-opacity:1;fill-rule:evenodd;stroke:none;stroke-width:1px;stroke-linecap:butt;stroke-linejoin:miter;stroke-opacity:1" />
      <path
         sodipodi:nodetypes="ccccc"
         id="path13184"
         d="M 23.5,5.5 L 23.5,25.5 L 10.5,32.5 L 10.5,12.5 L 23.5,5.5 z"
         style="fill:url(#radialGradient8734);fill-opacity:1;fill-rule:evenodd;stroke:none;stroke-width:1px;stroke-linecap:butt;stroke-linejoin:miter;stroke-opacity:1" />
      <path
         id="path13186"
         d="M 16.53125,0.9375 L 16.28125,1.0625 L 2.28125,8.0625 L 2,8.1875 L 2,8.5 L 2,28.5 C 2,28.5 2.0058107,28.844025 2.15625,29.28125 C 2.3066893,29.718475 2.5946708,30.285768 3.15625,30.84375 C 4.2794085,31.959715 6.441911,33 10.5,33 L 10.625,33 L 10.75,32.9375 L 23.75,25.9375 L 24,25.8125 L 24,25.5 L 24,5.5 L 24,5.21875 L 23.75,5.0625 L 16.75,1.0625 L 16.53125,0.9375 z M 16.46875,2.0625 L 23,5.78125 L 23,25.1875 L 10.40625,32 C 6.5981116,31.980176 4.7555007,31.031111 3.875,30.15625 C 3.430133,29.714232 3.2013685,29.281525 3.09375,28.96875 C 2.9861315,28.655975 3,28.5 3,28.5 L 3,8.8125 L 16.46875,2.0625 z"
         style="fill:#000000;fill-opacity:1;fill-rule:evenodd;stroke:none;stroke-width:1px;stroke-linecap:butt;stroke-linejoin:miter;stroke-opacity:1" />
      <path
         id="path13188"
         d="M 3.5,12.1875 L 3.5,13 L 3.5,15 L 3.5,15.3125 L 3.78125,15.4375 L 7.78125,17.4375 L 8.5,17.8125 L 8.5,17 L 8.5,15 L 8.5,14.6875 L 8.21875,14.5625 L 4.21875,12.5625 L 3.5,12.1875 z M 4.5,13.8125 L 7.5,15.3125 L 7.5,16.1875 L 4.5,14.6875 L 4.5,13.8125 z"
         style="fill:#000000;fill-opacity:1;fill-rule:evenodd;stroke:none;stroke-width:1px;stroke-linecap:butt;stroke-linejoin:miter;stroke-opacity:1" />
      <path
         id="path13190"
         d="M 4.21875,19.0625 L 3.78125,19.9375 L 7.78125,21.9375 L 8.21875,21.0625 L 4.21875,19.0625 z"
         style="fill:#000000;fill-opacity:1;fill-rule:evenodd;stroke:none;stroke-width:1px;stroke-linecap:butt;stroke-linejoin:miter;stroke-opacity:1" />
      <path
         id="path13192"
         d="M 4.21875,21.5625 L 3.78125,22.4375 L 7.78125,24.4375 L 8.21875,23.5625 L 4.21875,21.5625 z"
         style="fill:#000000;fill-opacity:1;fill-rule:evenodd;stroke:none;stroke-width:1px;stroke-linecap:butt;stroke-linejoin:miter;stroke-opacity:1" />
      <path
         id="path13194"
         d="M 4.21875,24.0625 L 3.78125,24.9375 L 7.78125,26.9375 L 8.21875,26.0625 L 4.21875,24.0625 z"
         style="fill:#000000;fill-opacity:1;fill-rule:evenodd;stroke:none;stroke-width:1px;stroke-linecap:butt;stroke-linejoin:miter;stroke-opacity:1" />
      <path
         id="path13196"
         d="M 4.21875,26.5625 L 3.78125,27.4375 L 7.78125,29.4375 L 8.21875,28.5625 L 4.21875,26.5625 z"
         style="fill:#000000;fill-opacity:1;fill-rule:evenodd;stroke:none;stroke-width:1px;stroke-linecap:butt;stroke-linejoin:miter;stroke-opacity:1" />
    </g>
  </g>
</svg>
