<?xml version="1.0" encoding="UTF-8" standalone="no"?>
<!-- Created with Inkscape (http://www.inkscape.org/) -->
<svg
   xmlns:dc="http://purl.org/dc/elements/1.1/"
   xmlns:cc="http://web.resource.org/cc/"
   xmlns:rdf="http://www.w3.org/1999/02/22-rdf-syntax-ns#"
   xmlns:svg="http://www.w3.org/2000/svg"
   xmlns="http://www.w3.org/2000/svg"
   xmlns:xlink="http://www.w3.org/1999/xlink"
   xmlns:sodipodi="http://sodipodi.sourceforge.net/DTD/sodipodi-0.dtd"
   xmlns:inkscape="http://www.inkscape.org/namespaces/inkscape"
   width="399.57144"
   height="562.83954"
   id="svg2"
   inkscape:label="Pozadí"
   sodipodi:version="0.32"
   inkscape:version="0.44+devel"
   sodipodi:docbase="C:\Documents and Settings\Molumen\Desktop"
   sodipodi:docname="Machovka_case.svg"
   inkscape:output_extension="org.inkscape.output.svg.inkscape"
   version="1.0"
   sodipodi:modified="true">
  <defs
     id="defs3">
    <linearGradient
       id="linearGradient2825">
      <stop
         style="stop-color:#9494a0;stop-opacity:1;"
         offset="0"
         id="stop2827" />
      <stop
         id="stop2833"
         offset="0.63793105"
         style="stop-color:#9494a0;stop-opacity:0.49803922;" />
      <stop
         style="stop-color:#9494a0;stop-opacity:0;"
         offset="1"
         id="stop2829" />
    </linearGradient>
    <linearGradient
       inkscape:collect="always"
       xlink:href="#linearGradient2825"
       id="linearGradient2831"
       x1="172.71428"
       y1="309.14789"
       x2="420.85709"
       y2="309.14789"
       gradientUnits="userSpaceOnUse" />
    <linearGradient
       inkscape:collect="always"
       xlink:href="#linearGradient2825"
       id="linearGradient2367"
       gradientUnits="userSpaceOnUse"
       x1="172.71428"
       y1="309.14789"
       x2="420.85709"
       y2="309.14789"
       gradientTransform="translate(119.198,141.4214)" />
  </defs>
  <sodipodi:namedview
     id="base"
     pagecolor="#ffffff"
     bordercolor="#666666"
     borderopacity="1.0"
     inkscape:pageopacity="0.0"
     inkscape:pageshadow="2"
     inkscape:zoom="0.9899495"
     inkscape:cx="216.13613"
     inkscape:cy="289.36262"
     inkscape:document-units="px"
     inkscape:current-layer="layer1"
     showguides="true"
     inkscape:guide-bbox="true"
     inkscape:window-width="1024"
     inkscape:window-height="712"
     inkscape:window-x="66"
     inkscape:window-y="87" />
  <metadata
     id="metadata6">
    <rdf:RDF>
      <cc:Work
         rdf:about="">
        <dc:format>image/svg+xml</dc:format>
        <dc:type
           rdf:resource="http://purl.org/dc/dcmitype/StillImage" />
        <cc:license
           rdf:resource="http://web.resource.org/cc/PublicDomain" />
        <dc:title>case</dc:title>
        <dc:creator>
          <cc:Agent>
            <dc:title />
          </cc:Agent>
        </dc:creator>
        <dc:publisher>
          <cc:Agent>
            <dc:title>ZS a MS Machovo nam.</dc:title>
          </cc:Agent>
        </dc:publisher>
        <dc:language>cz</dc:language>
        <dc:subject>
          <rdf:Bag>
            <rdf:li>case</rdf:li>
          </rdf:Bag>
        </dc:subject>
      </cc:Work>
      <cc:License
         rdf:about="http://web.resource.org/cc/PublicDomain">
        <cc:permits
           rdf:resource="http://web.resource.org/cc/Reproduction" />
        <cc:permits
           rdf:resource="http://web.resource.org/cc/Distribution" />
        <cc:permits
           rdf:resource="http://web.resource.org/cc/DerivativeWorks" />
      </cc:License>
    </rdf:RDF>
  </metadata>
  <g
     inkscape:label="Vrstva 1"
     inkscape:groupmode="layer"
     id="layer1"
     transform="translate(-144.41228,-227.48264)">
    <g
       id="g2371"
       inkscape:export-filename="/media/KINGSTON/inkscape/9.c/Tomas Krauskopf/vyrobky inscapeu/vt/case.png"
       inkscape:export-xdpi="90"
       inkscape:export-ydpi="90"
       transform="matrix(0.9089609,7.119907e-3,-7.119907e-3,0.9089609,34.958822,43.879373)">
      <flowRoot
         style="font-size:28px;font-style:normal;font-variant:normal;font-weight:normal;font-stretch:normal;text-align:start;line-height:125%;writing-mode:lr-tb;text-anchor:start;font-family:Arial Black"
         id="flowRoot6395"
         xml:space="preserve"><flowRegion
           id="flowRegion6397"><rect
             style="font-size:28px;font-style:normal;font-variant:normal;font-weight:normal;font-stretch:normal;text-align:start;line-height:125%;writing-mode:lr-tb;text-anchor:start;font-family:Arial Black"
             y="147.2655"
             x="212.13203"
             height="15.152288"
             width="53.538086"
             id="rect6399" /></flowRegion><flowPara
           id="flowPara6401">LG</flowPara></flowRoot>      <path
         sodipodi:nodetypes="ccccccc"
         id="path1932"
         d="M 300.62658,789.49787 L 292.05515,228.0693 L 533.58522,230.6739 L 533.48369,239.49787 L 542.05519,768.0693 L 543.48369,778.0693 L 300.62658,789.49787 z "
         style="fill:none;fill-rule:evenodd;stroke:#000000;stroke-width:1px;stroke-linecap:butt;stroke-linejoin:miter;stroke-opacity:1" />
      <path
         sodipodi:nodetypes="ccccc"
         id="path1934"
         d="M 292.05515,227.98264 L 144.91228,248.0693 L 148.02196,726.88583 L 300.46069,789.82219 L 292.05515,227.98264 z "
         style="fill:#797880;fill-opacity:1;fill-rule:evenodd;stroke:#000000;stroke-width:1px;stroke-linecap:butt;stroke-linejoin:miter;stroke-opacity:1" />
      <path
         sodipodi:nodetypes="ccccccccccccc"
         id="path1936"
         d="M 292.41228,228.06929 L 533.48375,230.21215 L 539.55509,618.42644 L 514.19797,639.14073 L 497.76942,650.56929 L 482.76938,658.78358 L 462.76942,668.78358 L 438.48371,672.35501 L 402.76942,673.0693 L 362.41228,664.14073 L 321.34085,645.92643 L 299.198,620.56929 L 292.41228,228.06929 z "
         style="fill:url(#linearGradient2367);fill-opacity:1;fill-rule:evenodd;stroke:#000000;stroke-width:1px;stroke-linecap:butt;stroke-linejoin:miter;stroke-opacity:1" />
      <path
         sodipodi:nodetypes="ccccc"
         id="path2837"
         d="M 145.50402,277.56422 L 282.05514,262.35501 L 287.76943,785.21215 L 148.77958,726.2223 L 145.50402,277.56422 z "
         style="fill:none;fill-rule:evenodd;stroke:#000000;stroke-width:1px;stroke-linecap:butt;stroke-linejoin:miter;stroke-opacity:1" />
      <path
         transform="matrix(1.4,0,0,2.2,518.7062,-181.3796)"
         d="M -260.61936 211.41019 A 2.5253813 2.5253813 0 1 1  -265.67013,211.41019 A 2.5253813 2.5253813 0 1 1  -260.61936 211.41019 z"
         sodipodi:ry="2.5253813"
         sodipodi:rx="2.5253813"
         sodipodi:cy="211.41019"
         sodipodi:cx="-263.14474"
         id="path2839"
         style="fill:#eeeeef;fill-opacity:1;fill-rule:nonzero;stroke:none;stroke-width:2.29999995;stroke-miterlimit:4;stroke-dasharray:none;stroke-opacity:1"
         sodipodi:type="arc" />
      <path
         sodipodi:type="arc"
         style="fill:#eeeeef;fill-opacity:1;fill-rule:nonzero;stroke:none;stroke-width:2.29999995;stroke-miterlimit:4;stroke-dasharray:none;stroke-opacity:1"
         id="path4611"
         sodipodi:cx="-263.14474"
         sodipodi:cy="211.41019"
         sodipodi:rx="2.5253813"
         sodipodi:ry="2.5253813"
         d="M -260.61936 211.41019 A 2.5253813 2.5253813 0 1 1  -265.67013,211.41019 A 2.5253813 2.5253813 0 1 1  -260.61936 211.41019 z"
         transform="matrix(1.4,0,0,2.2,651.9956,310.4527)" />
      <path
         transform="matrix(1.4,0,0,2.2,521.6754,256.2615)"
         d="M -260.61936 211.41019 A 2.5253813 2.5253813 0 1 1  -265.67013,211.41019 A 2.5253813 2.5253813 0 1 1  -260.61936 211.41019 z"
         sodipodi:ry="2.5253813"
         sodipodi:rx="2.5253813"
         sodipodi:cy="211.41019"
         sodipodi:cx="-263.14474"
         id="path4613"
         style="fill:#eeeeef;fill-opacity:1;fill-rule:nonzero;stroke:none;stroke-width:2.29999995;stroke-miterlimit:4;stroke-dasharray:none;stroke-opacity:1"
         sodipodi:type="arc" />
      <path
         sodipodi:type="arc"
         style="fill:#eeeeef;fill-opacity:1;fill-rule:nonzero;stroke:none;stroke-width:2.29999995;stroke-miterlimit:4;stroke-dasharray:none;stroke-opacity:1"
         id="path4615"
         sodipodi:cx="-263.14474"
         sodipodi:cy="211.41019"
         sodipodi:rx="2.5253813"
         sodipodi:ry="2.5253813"
         d="M -260.61936 211.41019 A 2.5253813 2.5253813 0 1 1  -265.67013,211.41019 A 2.5253813 2.5253813 0 1 1  -260.61936 211.41019 z"
         transform="matrix(1.4,0,0,2.2,646.8223,-195.583)" />
      <path
         sodipodi:nodetypes="cccccc"
         id="path4617"
         d="M 516.18798,264.94831 L 518.20828,388.18692 L 316.17775,388.692 L 315.1676,261.41278 L 515.17778,262.42293 L 516.18798,264.94831 z "
         style="fill:#636268;fill-opacity:1;fill-rule:evenodd;stroke:#000000;stroke-width:1px;stroke-linecap:butt;stroke-linejoin:miter;stroke-opacity:1" />
      <path
         sodipodi:nodetypes="ccccc"
         id="path4619"
         d="M 322.05514,270.21215 L 508.48371,270.92644 L 508.98879,300.21215 L 322.22102,301.64072 L 322.05514,270.21215 z "
         style="fill:#3d3c42;fill-opacity:1;fill-rule:evenodd;stroke:#000000;stroke-width:1px;stroke-linecap:butt;stroke-linejoin:miter;stroke-opacity:1" />
      <path
         id="path4621"
         d="M 501.43604,293.39481 L 478.67284,293.43705 L 478.67284,291.87376 L 501.54495,291.916 L 501.43604,293.39481 z "
         style="fill:#edf2f8;fill-opacity:1;fill-rule:evenodd;stroke:#fbeeee;stroke-width:0.53723723px;stroke-linecap:butt;stroke-linejoin:miter;stroke-opacity:1" />
      <path
         id="path6393"
         d="M 325.62657,277.71215 L 502.76943,278.42644 L 503.12657,284.85501 L 325.98371,284.49787 L 325.62657,277.71215 z "
         style="fill:#000000;fill-opacity:1;fill-rule:evenodd;stroke:#000000;stroke-width:1px;stroke-linecap:butt;stroke-linejoin:miter;stroke-opacity:1" />
      <path
         style="fill:#3d3c42;fill-opacity:1;fill-rule:evenodd;stroke:#000000;stroke-width:1.10497177px;stroke-linecap:butt;stroke-linejoin:miter;stroke-opacity:1"
         d="M 323.62286,307.64028 L 508.93659,305.48243 L 509.44138,342.26942 L 324.7988,343.50956 L 323.62286,307.64028 z "
         id="path6411"
         sodipodi:nodetypes="ccccc" />
      <path
         sodipodi:nodetypes="ccccc"
         id="path6413"
         d="M 323.1142,348.54787 L 509.9503,347.38886 L 510.9602,384.21697 L 324.79523,384.42432 L 323.1142,348.54787 z "
         style="fill:#3d3c42;fill-opacity:1;fill-rule:evenodd;stroke:#000000;stroke-width:1.09780467px;stroke-linecap:butt;stroke-linejoin:miter;stroke-opacity:1" />
      <path
         id="path6415"
         d="M 453.05341,407.37983 L 397.49502,406.87475 L 393.95949,400.81383 L 387.3935,399.29861 L 374.26151,398.79353 L 367.19045,404.85444 L 365.67522,407.8849 L 317.1879,407.37983 L 318.19805,420.00673 L 367.19045,421.01689 L 370.72598,426.57272 L 379.31228,430.10826 L 390.42396,430.10826 L 399.01025,425.0575 L 399.01025,420.51181 L 452.54834,420.51181 L 453.05341,407.37983 z "
         style="fill:#36353a;fill-opacity:1;fill-rule:evenodd;stroke:#000000;stroke-width:1px;stroke-linecap:butt;stroke-linejoin:miter;stroke-opacity:1" />
      <path
         id="path6417"
         d="M 446.9925,412.17805 L 322.23867,411.92551 L 322.4912,415.20851 L 445.98235,415.71358 L 446.9925,412.17805 z "
         style="fill:#000000;fill-opacity:1;fill-rule:evenodd;stroke:#000000;stroke-width:1px;stroke-linecap:butt;stroke-linejoin:miter;stroke-opacity:1" />
      <g
         transform="matrix(0.883331,0,0,1,687.2066,268.7006)"
         id="g6423">
        <path
           sodipodi:type="arc"
           style="opacity:1;fill:#7e7e85;fill-opacity:1;fill-rule:nonzero;stroke:#fbeeee;stroke-width:2.29999995;stroke-miterlimit:4;stroke-dasharray:none;stroke-opacity:1"
           id="path6419"
           sodipodi:cx="-292.94424"
           sodipodi:cy="241.20969"
           sodipodi:rx="32.324883"
           sodipodi:ry="31.31473"
           d="M -260.61936 241.20969 A 32.324883 31.31473 0 1 1  -325.26913,241.20969 A 32.324883 31.31473 0 1 1  -260.61936 241.20969 z"
           transform="matrix(0.776573,0,0,0.740852,-72.95189,68.22317)" />
        <path
           sodipodi:type="arc"
           style="opacity:1;fill:#ffffff;fill-opacity:1;fill-rule:nonzero;stroke:#fbeeee;stroke-width:2.29999995;stroke-miterlimit:4;stroke-dasharray:none;stroke-opacity:1"
           id="path6421"
           sodipodi:cx="-294.96454"
           sodipodi:cy="240.19954"
           sodipodi:rx="14.142136"
           sodipodi:ry="12.121831"
           d="M -280.8224 240.19954 A 14.142136 12.121831 0 1 1  -309.10667,240.19954 A 14.142136 12.121831 0 1 1  -280.8224 240.19954 z"
           transform="translate(-5.892857,5.535715)" />
      </g>
      <path
         id="path6429"
         d="M 296.33547,445.11625 L 537.04038,445.11625 L 537.04038,447.41405 L 296.33547,448.4353 L 296.33547,445.11625 z "
         style="fill:#171619;fill-opacity:1;fill-rule:evenodd;stroke:#000000;stroke-width:0.71140569px;stroke-linecap:butt;stroke-linejoin:miter;stroke-opacity:1" />
      <path
         transform="matrix(0.599351,0,0,0.763738,554.6335,271.7291)"
         d="M -169.70564 418.99655 A 49.497475 45.456863 0 1 1  -268.70058,418.99655 A 49.497475 45.456863 0 1 1  -169.70564 418.99655 z"
         sodipodi:ry="45.456863"
         sodipodi:rx="49.497475"
         sodipodi:cy="418.99655"
         sodipodi:cx="-219.20311"
         id="path6431"
         style="fill:#ffffff;fill-opacity:1;fill-rule:nonzero;stroke:#080202;stroke-width:2.29999995;stroke-miterlimit:4;stroke-dasharray:none;stroke-opacity:1"
         sodipodi:type="arc" />
      <path
         id="path7318"
         d="M 538.41131,617.99663 L 515.1778,638.19968 L 497.50013,650.82659 L 464.16509,668.50426 L 439.41636,671.53472 L 405.07117,673.04995 L 363.14984,664.46365 L 322.23866,646.2809 L 300.01531,621.02709 L 297.995,620.52201 L 304.56099,656.8875 L 328.29958,692.74792 L 359.61431,711.94082 L 410.62701,721.53727 L 467.19555,713.96112 L 504.06612,692.24284 L 526.28948,664.96872 L 538.41131,617.99663 z "
         style="fill:#3b3a40;fill-opacity:1;fill-rule:evenodd;stroke:#000000;stroke-width:1px;stroke-linecap:butt;stroke-linejoin:miter;stroke-opacity:1" />
      <path
         id="path7320"
         d="M 298.12657,627.35501 L 299.91229,789.14072 L 543.48371,778.42644 L 541.34086,767.71215 L 539.55514,617.71215 L 527.41229,663.42644 L 503.12657,693.0693 L 467.05514,714.14072 L 410.62657,721.99787 L 358.84086,711.99787 L 327.76943,693.42644 L 304.198,656.99787 L 298.12657,627.35501 z "
         style="fill:#5f5e66;fill-opacity:1;fill-rule:evenodd;stroke:#000000;stroke-width:1px;stroke-linecap:butt;stroke-linejoin:miter;stroke-opacity:1" />
      <g
         transform="matrix(0.999684,-2.515494e-2,2.515494e-2,0.999684,-207.2824,103.0711)"
         id="g10874">
        <path
           style="fill:#454346;fill-opacity:1;fill-rule:evenodd;stroke:#958585;stroke-width:3.79999995;stroke-linecap:butt;stroke-linejoin:miter;stroke-miterlimit:4;stroke-dasharray:none;stroke-opacity:1"
           d="M 657.14286,679.50504 L 665,670.93361 L 666.42857,657.36219 L 659.28572,647.36219 L 589.28572,646.6479 L 581.42857,655.93361 L 581.42857,670.93361 L 587.85715,680.93361 L 657.14286,679.50504 z "
           id="path7322" />
        <path
           transform="matrix(0.866784,0,0,0.881302,140.3975,141.9918)"
           d="M 575 591.4693 A 5 4.1071429 0 1 1  565,591.4693 A 5 4.1071429 0 1 1  575 591.4693 z"
           sodipodi:ry="4.1071429"
           sodipodi:rx="5"
           sodipodi:cy="591.4693"
           sodipodi:cx="570"
           id="path9102"
           style="opacity:1;fill:#f4f3fe;fill-opacity:1;fill-rule:nonzero;stroke:#13db1c;stroke-width:3.5999999;stroke-miterlimit:4;stroke-dasharray:none;stroke-opacity:1"
           sodipodi:type="arc" />
        <path
           sodipodi:type="arc"
           style="opacity:1;fill:#f4f3fe;fill-opacity:1;fill-rule:nonzero;stroke:#f36596;stroke-width:3.5999999;stroke-miterlimit:4;stroke-dasharray:none;stroke-opacity:1"
           id="path7330"
           sodipodi:cx="570"
           sodipodi:cy="591.4693"
           sodipodi:rx="5"
           sodipodi:ry="4.1071429"
           d="M 575 591.4693 A 5 4.1071429 0 1 1  565,591.4693 A 5 4.1071429 0 1 1  575 591.4693 z"
           transform="matrix(0.866784,0,0,0.881302,157.1832,141.9918)" />
        <path
           style="fill:#101012;fill-opacity:1;fill-rule:evenodd;stroke:#000000;stroke-width:1px;stroke-linecap:butt;stroke-linejoin:miter;stroke-opacity:1"
           d="M 591.78571,660.93361 L 611.78571,660.93361 L 611.07143,655.93361 L 590.71429,655.93361 L 591.78571,660.93361 z "
           id="path7326" />
        <path
           id="path7328"
           d="M 592.14285,672.00504 L 612.14285,672.00504 L 611.42857,667.00504 L 591.07143,667.00504 L 592.14285,672.00504 z "
           style="fill:#050507;fill-opacity:1;fill-rule:evenodd;stroke:#000000;stroke-width:1px;stroke-linecap:butt;stroke-linejoin:miter;stroke-opacity:1" />
      </g>
    </g>
  </g>
</svg>
