<?xml version="1.0" encoding="UTF-8" standalone="no"?>
<!-- Created with Inkscape (http://www.inkscape.org/) --><svg height="48px" id="svg57" inkscape:output_extension="org.inkscape.output.svg.inkscape" inkscape:version="0.46" sodipodi:docbase="/home/jimmac/src/cvs/tango-icon-theme/scalable/places" sodipodi:docname="user-trash.svg" sodipodi:version="0.32" width="48px" xmlns="http://www.w3.org/2000/svg" xmlns:cc="http://creativecommons.org/ns#" xmlns:dc="http://purl.org/dc/elements/1.1/" xmlns:inkscape="http://www.inkscape.org/namespaces/inkscape" xmlns:rdf="http://www.w3.org/1999/02/22-rdf-syntax-ns#" xmlns:sodipodi="http://sodipodi.sourceforge.net/DTD/sodipodi-0.dtd" xmlns:svg="http://www.w3.org/2000/svg" xmlns:xlink="http://www.w3.org/1999/xlink">
  <metadata>
    <rdf:RDF xmlns:cc="http://web.resource.org/cc/" xmlns:dc="http://purl.org/dc/elements/1.1/" xmlns:rdf="http://www.w3.org/1999/02/22-rdf-syntax-ns#">
      <cc:Work rdf:about="">
        <dc:title>Trash Empty</dc:title>
        <dc:description></dc:description>
        <dc:subject>
          <rdf:Bag>
            <rdf:li>deleted files</rdf:li>
            <rdf:li>waste</rdf:li>
            <rdf:li>trash</rdf:li>
            <rdf:li>bin</rdf:li>
            <rdf:li>delete</rdf:li>
            <rdf:li>recycle</rdf:li>
            <rdf:li>empty</rdf:li>
          </rdf:Bag>
        </dc:subject>
        <dc:publisher>
          <cc:Agent rdf:about="http://www.openclipart.org/">
            <dc:title>Novell, Inc., Source: Tango Icon Library, Source: Tango Icon Library, Source: Tango Icon Library, Source: Tango Icon Library</dc:title>
          </cc:Agent>
        </dc:publisher>
        <dc:creator>
          <cc:Agent>
            <dc:title>Jakub Steiner</dc:title>
          </cc:Agent>
        </dc:creator>
        <dc:rights>
          <cc:Agent>
            <dc:title>Jakub Steiner</dc:title>
          </cc:Agent>
        </dc:rights>
        <dc:date>2003-02-04</dc:date>
        <dc:format>image/svg+xml</dc:format>
        <dc:type rdf:resource="http://purl.org/dc/dcmitype/StillImage"/>
        <cc:license rdf:resource="http://en.wikipedia.org/wiki/Public_domain"/>
        <dc:language>en</dc:language>
      </cc:Work>
    </rdf:RDF>
  </metadata>
  <defs id="defs3">
    <inkscape:perspective id="perspective70" inkscape:persp3d-origin="24 : 16 : 1" inkscape:vp_x="0 : 24 : 1" inkscape:vp_y="0 : 1000 : 0" inkscape:vp_z="48 : 24 : 1" sodipodi:type="inkscape:persp3d"/>
    <radialGradient cx="605.71429" cy="486.64789" fx="605.71429" fy="486.64789" gradientTransform="matrix(-2.774389,0,0,1.969706,112.7623,-872.8854)" gradientUnits="userSpaceOnUse" id="radialGradient6719" inkscape:collect="always" r="117.14286" xlink:href="#linearGradient5060"/>
    <linearGradient id="linearGradient5060" inkscape:collect="always">
      <stop id="stop5062" offset="0" style="stop-color:black;stop-opacity:1;"/>
      <stop id="stop5064" offset="1" style="stop-color:black;stop-opacity:0;"/>
    </linearGradient>
    <radialGradient cx="605.71429" cy="486.64789" fx="605.71429" fy="486.64789" gradientTransform="matrix(2.774389,0,0,1.969706,-1891.633,-872.8854)" gradientUnits="userSpaceOnUse" id="radialGradient6717" inkscape:collect="always" r="117.14286" xlink:href="#linearGradient5060"/>
    <linearGradient id="linearGradient5048">
      <stop id="stop5050" offset="0" style="stop-color:black;stop-opacity:0;"/>
      <stop id="stop5056" offset="0.5" style="stop-color:black;stop-opacity:1;"/>
      <stop id="stop5052" offset="1" style="stop-color:black;stop-opacity:0;"/>
    </linearGradient>
    <linearGradient gradientTransform="matrix(2.774389,0,0,1.969706,-1892.179,-872.8854)" gradientUnits="userSpaceOnUse" id="linearGradient6715" inkscape:collect="always" x1="302.85715" x2="302.85715" xlink:href="#linearGradient5048" y1="366.64789" y2="609.50507"/>
    <linearGradient id="linearGradient381" inkscape:collect="always">
      <stop id="stop382" offset="0" style="stop-color:#ffffff;stop-opacity:1;"/>
      <stop id="stop383" offset="1" style="stop-color:#ffffff;stop-opacity:0;"/>
    </linearGradient>
    <linearGradient id="linearGradient368">
      <stop id="stop369" offset="0.0000000" style="stop-color:#ffffff;stop-opacity:0.10309278;"/>
      <stop id="stop372" offset="1.0000000" style="stop-color:#ffffff;stop-opacity:0.0000000;"/>
    </linearGradient>
    <linearGradient id="linearGradient1065">
      <stop id="stop1066" offset="0.0000000" style="stop-color:#b5c051;stop-opacity:1.0000000;"/>
      <stop id="stop1067" offset="1.0000000" style="stop-color:#858e3f;stop-opacity:1.0000000;"/>
    </linearGradient>
    <linearGradient id="linearGradient172">
      <stop id="stop173" offset="0.0000000" style="stop-color:#616c08;stop-opacity:1.0000000;"/>
      <stop id="stop174" offset="1.0000000" style="stop-color:#495106;stop-opacity:1.0000000;"/>
    </linearGradient>
    <linearGradient id="linearGradient161">
      <stop id="stop162" offset="0.0000000" style="stop-color:#575955;stop-opacity:1.0000000;"/>
      <stop id="stop163" offset="1.0000000" style="stop-color:#7c7e79;stop-opacity:1.0000000;"/>
    </linearGradient>
    <linearGradient id="linearGradient157">
      <stop id="stop158" offset="0.0000000" style="stop-color:#babdb6;stop-opacity:1.0000000;"/>
      <stop id="stop159" offset="1.0000000" style="stop-color:#f1f5ec;stop-opacity:1.0000000;"/>
    </linearGradient>
    <linearGradient id="linearGradient149" inkscape:collect="always">
      <stop id="stop150" offset="0" style="stop-color:#000000;stop-opacity:1;"/>
      <stop id="stop151" offset="1" style="stop-color:#000000;stop-opacity:0;"/>
    </linearGradient>
    <linearGradient id="linearGradient1869">
      <stop id="stop1870" offset="0.0000000" style="stop-color:#eff3f4;stop-opacity:1.0000000;"/>
      <stop id="stop1871" offset="1.0000000" style="stop-color:#939596;stop-opacity:1.0000000;"/>
    </linearGradient>
    <linearGradient gradientTransform="matrix(1.464893,0,0,0.475906,30.56501,-34.34268)" gradientUnits="userSpaceOnUse" id="linearGradient1872" inkscape:collect="always" x1="-4.6375198" x2="-4.5239210" xlink:href="#linearGradient1869" y1="104.38752" y2="110.61378"/>
    <linearGradient gradientTransform="matrix(3.495016,0,0,0.344323,-2.972087,-3.408148e-2)" gradientUnits="userSpaceOnUse" id="linearGradient152" inkscape:collect="always" x1="7.3738608" x2="7.5291119" xlink:href="#linearGradient149" y1="27.376621" y2="69.460503"/>
    <linearGradient gradientTransform="matrix(0.772488,0,0,1.55784,-2.79531,-0.166664)" gradientUnits="userSpaceOnUse" id="linearGradient160" inkscape:collect="always" x1="55.208272" x2="60.685901" xlink:href="#linearGradient157" y1="6.8897981" y2="6.8897981"/>
    <linearGradient gradientTransform="matrix(2.374946,0,0,0.506711,-2.79531,-0.166664)" gradientUnits="userSpaceOnUse" id="linearGradient164" inkscape:collect="always" x1="2.9325605" x2="19.737664" xlink:href="#linearGradient161" y1="21.169637" y2="21.169637"/>
    <linearGradient gradientTransform="scale(1.175635,0.850604)" gradientUnits="userSpaceOnUse" id="linearGradient1068" inkscape:collect="always" x1="10.861447" x2="30.587307" xlink:href="#linearGradient1065" y1="33.139202" y2="37.720802"/>
    <linearGradient gradientTransform="scale(1.175635,0.850604)" gradientUnits="userSpaceOnUse" id="linearGradient101" inkscape:collect="always" x1="19.347122" x2="19.672924" xlink:href="#linearGradient172" y1="23.114082" y2="52.625473"/>
    <linearGradient gradientTransform="scale(1.175636,0.850604)" gradientUnits="userSpaceOnUse" id="linearGradient374" inkscape:collect="always" x1="17.573946" x2="25.312450" xlink:href="#linearGradient368" y1="25.335417" y2="48.805084"/>
    <linearGradient gradientTransform="scale(1.215669,0.822592)" gradientUnits="userSpaceOnUse" id="linearGradient384" inkscape:collect="always" x1="19.977491" x2="19.857769" xlink:href="#linearGradient381" y1="38.962704" y2="23.600779"/>
    <linearGradient gradientTransform="matrix(3.495016,0,0,0.344323,-2.972087,-3.408148e-2)" gradientUnits="userSpaceOnUse" id="linearGradient3977" inkscape:collect="always" x1="7.3738608" x2="7.5291119" xlink:href="#linearGradient149" y1="27.376621" y2="69.460503"/>
  </defs>
  <sodipodi:namedview bordercolor="#666666" borderopacity="1.0" id="base" inkscape:current-layer="layer1" inkscape:cx="-135.29054" inkscape:cy="38.558683" inkscape:document-units="px" inkscape:grid-bbox="true" inkscape:grid-points="true" inkscape:guide-bbox="false" inkscape:object-bbox="true" inkscape:object-nodes="true" inkscape:object-points="true" inkscape:pageopacity="0.0" inkscape:pageshadow="2" inkscape:showpageshadow="false" inkscape:window-height="818" inkscape:window-width="919" inkscape:window-x="0" inkscape:window-y="30" inkscape:zoom="1" pagecolor="#ffffff" showborder="true" showgrid="false">
    <inkscape:grid color="#0000ff" empcolor="#0000ff" empopacity="0.4" empspacing="4" id="GridFromPre046Settings" opacity="0.2" originx="0px" originy="0px" spacingx="1px" spacingy="1px" type="xygrid"/>
  </sodipodi:namedview>
  <g id="layer1" inkscape:groupmode="layer" inkscape:label="Layer 1">
    <g id="g6707" style="display:inline" transform="matrix(2.262383e-2,0,0,1.966248e-2,44.39519,41.98146)">
      <rect height="478.35718" id="rect6709" style="opacity:0.40206185;color:black;fill:url(#linearGradient6715);fill-opacity:1;fill-rule:nonzero;stroke:none;stroke-width:1;stroke-linecap:round;stroke-linejoin:miter;marker:none;marker-start:none;marker-mid:none;marker-end:none;stroke-miterlimit:4;stroke-dasharray:none;stroke-dashoffset:0;stroke-opacity:1;visibility:visible;display:inline;overflow:visible" width="1339.6335" x="-1559.2523" y="-150.69685"/>
      <path d="M -219.61876,-150.68038 C -219.61876,-150.68038 -219.61876,327.65041 -219.61876,327.65041 C -76.744594,328.55086 125.78146,220.48075 125.78138,88.454235 C 125.78138,-43.572302 -33.655436,-150.68036 -219.61876,-150.68038 z " id="path6711" sodipodi:nodetypes="cccc" style="opacity:0.40206185;color:black;fill:url(#radialGradient6717);fill-opacity:1;fill-rule:nonzero;stroke:none;stroke-width:1;stroke-linecap:round;stroke-linejoin:miter;marker:none;marker-start:none;marker-mid:none;marker-end:none;stroke-miterlimit:4;stroke-dasharray:none;stroke-dashoffset:0;stroke-opacity:1;visibility:visible;display:inline;overflow:visible"/>
      <path d="M -1559.2523,-150.68038 C -1559.2523,-150.68038 -1559.2523,327.65041 -1559.2523,327.65041 C -1702.1265,328.55086 -1904.6525,220.48075 -1904.6525,88.454235 C -1904.6525,-43.572302 -1745.2157,-150.68036 -1559.2523,-150.68038 z " id="path6713" sodipodi:nodetypes="cccc" style="opacity:0.40206185;color:black;fill:url(#radialGradient6719);fill-opacity:1;fill-rule:nonzero;stroke:none;stroke-width:1;stroke-linecap:round;stroke-linejoin:miter;marker:none;marker-start:none;marker-mid:none;marker-end:none;stroke-miterlimit:4;stroke-dasharray:none;stroke-dashoffset:0;stroke-opacity:1;visibility:visible;display:inline;overflow:visible"/>
    </g>
    <g id="g3964">
      <path d="M 3.836697,16.810238 C 3.792608,16.775175 5.56866,42.034206 5.569166,42.041863 C 5.73578,44.564407 7.134433,45.486354 8.699929,45.49011 C 8.75587,45.490239 38.069409,45.486863 38.693936,45.484234 C 41.330302,45.473139 41.976184,43.867694 42.149611,42.113575 C 42.163521,42.07899 43.938664,16.844824 43.952571,16.810238 C 30.580614,16.810238 17.208657,16.810238 3.836697,16.810238 z " id="path1751" inkscape:r_cx="true" inkscape:r_cy="true" sodipodi:nodetypes="ccccccc" style="fill:url(#linearGradient1068);fill-opacity:1;fill-rule:evenodd;stroke:url(#linearGradient101);stroke-width:0.99591541;stroke-linecap:butt;stroke-linejoin:miter;stroke-miterlimit:4;stroke-dasharray:none;stroke-opacity:1" transform="matrix(0.997091,0,0,1.011161,0.175269,-0.497829)"/>
      <path d="M 43.188383,18.930946 L 7.1998593,18.907789 C 34.314156,19.538355 39.641346,22.517229 42.946375,22.365024 L 43.188383,18.930946 z " id="path1893" inkscape:r_cx="true" inkscape:r_cy="true" sodipodi:nodetypes="cccc" style="color:#000000;fill:url(#linearGradient3977);fill-opacity:1;fill-rule:nonzero;stroke:none;stroke-width:0;stroke-linecap:butt;stroke-linejoin:miter;marker:none;marker-start:none;marker-mid:none;marker-end:none;stroke-miterlimit:4;stroke-dashoffset:0;stroke-opacity:1;visibility:visible;display:block" transform="matrix(1.007266,0,0,1.010724,-0.252168,-0.110549)"/>
      <g id="g144" inkscape:r_cx="true" inkscape:r_cy="true" style="fill:#ffffff;fill-opacity:0.48809521" transform="matrix(1.402179,0,0,1.438944,-66.03801,-8.126386)">
        <path d="M 64.131147,25.325447 L 67.928133,25.615144 L 69.396397,22.040585 L 67.659134,23.261574 C 67.659134,23.261574 66.914226,21.524169 66.378823,21.384498 C 65.843421,21.244828 63.559132,21.291385 63.559132,21.291385 C 64.285695,21.471073 64.850367,22.719512 64.859047,22.733674 C 65.085717,23.10353 65.72022,24.348057 65.72022,24.348057 L 64.131147,25.325447 z " id="path41" inkscape:r_cx="true" inkscape:r_cy="true" sodipodi:nodetypes="ccccccscc" style="fill-rule:evenodd;stroke:none;stroke-width:1px;stroke-linecap:butt;stroke-linejoin:miter;stroke-opacity:1"/>
        <path d="M 64.600893,22.852762 L 63.344021,25.250434 L 60.760121,23.620948 C 60.760121,23.620948 61.931819,21.409503 62.855175,21.409503 C 63.786342,21.409503 64.202456,22.212137 64.600893,22.852762 z " id="path130" inkscape:r_cx="true" inkscape:r_cy="true" sodipodi:nodetypes="ccczc" style="color:#000000;fill-opacity:0.30952382;fill-rule:evenodd;stroke:none;stroke-width:1px;stroke-linecap:butt;stroke-linejoin:miter;marker:none;marker-start:none;marker-mid:none;marker-end:none;stroke-miterlimit:4;stroke-dashoffset:0;stroke-opacity:1;visibility:visible;display:inline;overflow:visible"/>
        <path d="M 66.450976,28.545542 L 64.002948,31.471279 L 66.339076,34.488059 L 66.382284,32.587938 C 66.382284,32.587938 68.103047,32.750329 68.497986,32.362789 C 68.892923,31.975249 70.535933,30.02127 70.535933,30.02127 C 70.008436,30.552239 68.647269,30.395144 68.630659,30.395314 C 68.196893,30.399717 66.480102,30.359654 66.480102,30.359654 L 66.450976,28.545542 z " id="path139" inkscape:r_cx="true" inkscape:r_cy="true" sodipodi:nodetypes="ccccccscc" style="fill-rule:evenodd;stroke:none;stroke-width:1px;stroke-linecap:butt;stroke-linejoin:miter;stroke-opacity:1"/>
        <path d="M 68.748409,30.061355 L 67.337346,27.751062 L 70.062991,26.371707 C 70.062991,26.371707 71.358061,28.513238 70.883591,29.305365 C 70.405109,30.104193 69.502725,30.048732 68.748409,30.061355 z " id="path140" inkscape:r_cx="true" inkscape:r_cy="true" sodipodi:nodetypes="ccczc" style="color:#000000;fill-opacity:0.30952382;fill-rule:evenodd;stroke:none;stroke-width:1px;stroke-linecap:butt;stroke-linejoin:miter;marker:none;marker-start:none;marker-mid:none;marker-end:none;stroke-miterlimit:4;stroke-dashoffset:0;stroke-opacity:1;visibility:visible;display:inline;overflow:visible"/>
        <path d="M 62.170193,28.37565 L 60.961696,25.192931 L 57.437755,25.441971 L 58.884372,26.495777 C 58.884372,26.495777 57.885335,27.90621 58.024237,28.441813 C 58.163139,28.977415 58.94678,31.196407 58.94678,31.196407 C 58.749682,30.474372 59.564769,29.372969 59.572907,29.358488 C 59.785446,28.980335 60.676477,27.51233 60.676477,27.51233 L 62.170193,28.37565 z " id="path142" inkscape:r_cx="true" inkscape:r_cy="true" sodipodi:nodetypes="ccccccscc" style="fill-rule:evenodd;stroke:none;stroke-width:1px;stroke-linecap:butt;stroke-linejoin:miter;stroke-opacity:1"/>
        <path d="M 59.752772,29.661147 L 62.45898,29.59048 L 62.294995,32.640869 C 62.294995,32.640869 59.792913,32.695178 59.343013,31.888843 C 58.889308,31.075686 59.387472,30.32123 59.752772,29.661147 z " id="path143" inkscape:r_cx="true" inkscape:r_cy="true" sodipodi:nodetypes="ccczc" style="color:#000000;fill-opacity:0.30952382;fill-rule:evenodd;stroke:none;stroke-width:1px;stroke-linecap:butt;stroke-linejoin:miter;marker:none;marker-start:none;marker-mid:none;marker-end:none;stroke-miterlimit:4;stroke-dashoffset:0;stroke-opacity:1;visibility:visible;display:inline;overflow:visible"/>
      </g>
      <path d="M 41.62473,23.651808 C 36.299359,25.986218 29.004203,28.320991 23.056218,28.370558 C 16.516233,28.425058 11.697549,31.531025 6.8162911,33.914752 C 7.010968,36.794969 7.225682,38.805946 7.4908471,42.031519 C 7.6231144,43.640472 8.1287711,43.602252 10.431218,43.602252 C 19.542668,43.602252 31.496634,43.615196 38.688801,43.615196 C 40.449339,43.615196 40.248374,42.363465 40.34348,41.164752 C 40.803877,35.361894 41.217727,29.476257 41.62473,23.651808 z " id="path344" inkscape:r_cx="true" inkscape:r_cy="true" sodipodi:nodetypes="cccssssc" style="opacity:1;fill:url(#linearGradient374);fill-opacity:1;fill-rule:evenodd;stroke:none;stroke-width:14.96210194;stroke-linecap:butt;stroke-linejoin:miter;stroke-miterlimit:4;stroke-opacity:1" transform="matrix(0.997091,0,0,1.011161,0.253928,-0.654813)"/>
      <path d="M 5.2098606,19.402822 C 5.1584543,19.40269 6.0490537,32.078422 6.7566249,40.968384 C 6.9391608,43.250374 7.3101511,44.179154 8.747779,44.179154 C 20.599078,44.179154 37.441889,44.264299 38.015405,44.262223 C 40.789981,44.252176 40.738055,43.236189 40.967844,41.077514 C 41.051496,40.29168 42.504818,19.49121 42.490953,19.49121 C 32.560989,19.49121 17.47866,19.43444 5.2098606,19.402822 z " id="path375" inkscape:r_cx="true" inkscape:r_cy="true" sodipodi:nodetypes="cssssss" style="fill:none;fill-opacity:1;fill-rule:evenodd;stroke:url(#linearGradient384);stroke-width:0.99591541;stroke-linecap:butt;stroke-linejoin:miter;stroke-miterlimit:4;stroke-dasharray:none;stroke-opacity:0.2857143" transform="matrix(0.997091,0,0,1.011161,0.219976,-0.497829)"/>
    </g>
    <path d="M 7.538492,4.7306315 C 6.494167,4.7330003 5.620149,4.7569809 5.144078,5.7442051 C 5.061333,5.9157934 2.539129,12.879834 2.417869,13.145414 C 1.379764,15.419016 2.337109,18.283038 4.342179,18.263863 C 4.723494,18.260334 43.852401,18.281621 44.459163,18.263863 C 46.165984,18.214785 46.384401,14.898279 45.649626,13.406336 C 45.607999,13.321814 42.197827,5.6492999 42.110852,5.5134018 C 41.708578,4.9064789 40.807722,4.640488 40.138555,4.6654006 C 40.006734,4.6704304 7.668955,4.7303368 7.538492,4.7306315 z " id="path1841" inkscape:r_cx="true" inkscape:r_cy="true" sodipodi:nodetypes="cssssscss" style="fill:url(#linearGradient1872);fill-opacity:1;fill-rule:evenodd;stroke:#4d5506;stroke-width:0.97544956;stroke-linecap:butt;stroke-linejoin:miter;stroke-miterlimit:4;stroke-dasharray:none;stroke-opacity:1" transform="matrix(1.021485,0,0,1.028865,-0.537224,-0.298421)"/>
    <path d="M 7.72045,6.3900545 C 6.735524,6.3773223 6.671388,6.3392466 6.449677,7.0362462 C 6.398497,7.1971422 4.336482,13.531607 4.255655,13.777418 C 3.980776,14.613371 4.36948,14.833988 5.323403,14.816995 C 5.661327,14.810975 42.670159,14.816995 43.208169,14.816995 C 43.971941,14.816995 44.198501,14.565395 44.025974,13.971598 C 43.955868,13.730313 41.085266,6.9669634 41.008179,6.8465153 C 40.651639,6.3085929 40.713471,6.3101594 40.09072,6.3025755 C 39.973809,6.301151 7.836071,6.3915492 7.72045,6.3900545 z " id="path1864" inkscape:r_cx="true" inkscape:r_cy="true" sodipodi:nodetypes="cssssscss" style="color:#000000;fill:url(#linearGradient164);fill-opacity:1;fill-rule:evenodd;stroke:none;stroke-width:0;stroke-linecap:butt;stroke-linejoin:miter;marker:none;marker-start:none;marker-mid:none;marker-end:none;stroke-miterlimit:4;stroke-dashoffset:0;stroke-opacity:1;visibility:visible;display:block" transform="matrix(1.005586,0,0,1.027013,-0.134078,-0.270972)"/>
    <path d="M 7.191437,6.3869852 C 6.820562,6.4152986 6.642177,6.5251871 6.486944,7.0132015 C 6.435764,7.1740974 4.376014,13.499216 4.295186,13.745027 C 4.020307,14.580975 4.384957,14.805712 5.338881,14.78872 C 5.355404,14.788428 7.292214,14.788962 7.475548,14.78872 L 7.191437,6.3869852 z " id="path1880" inkscape:r_cx="true" inkscape:r_cy="true" sodipodi:nodetypes="cccccc" style="color:#000000;fill:#2e3436;fill-opacity:1;fill-rule:evenodd;stroke:none;stroke-width:0;stroke-linecap:butt;stroke-linejoin:miter;marker:none;marker-start:none;marker-mid:none;marker-end:none;stroke-miterlimit:4;stroke-dashoffset:0;stroke-opacity:1;visibility:visible;display:block" transform="matrix(1.005586,0,0,1.028865,-0.134078,-0.298421)"/>
    <path d="M 40.143457,6.2999077 C 40.594213,6.3037596 40.726578,6.2947269 41.014741,6.8394315 C 41.054147,6.9139229 43.889138,13.632601 43.990928,13.878411 C 44.337098,14.825515 43.677798,14.805712 42.632092,14.833183 C 42.433434,14.83289 40.083238,14.811194 39.852358,14.81095 L 40.143457,6.2999077 z " id="path1888" inkscape:r_cx="true" inkscape:r_cy="true" sodipodi:nodetypes="cscccc" style="color:#000000;fill:url(#linearGradient160);fill-opacity:1;fill-rule:evenodd;stroke:none;stroke-width:0;stroke-linecap:butt;stroke-linejoin:miter;marker:none;marker-start:none;marker-mid:none;marker-end:none;stroke-miterlimit:4;stroke-dashoffset:0;stroke-opacity:1;visibility:visible;display:block" transform="matrix(1.005586,0,0,1.028865,-0.134078,-0.298421)"/>
  </g>
</svg>
