<svg contentScriptType="text/ecmascript" width="64.0px" xmlns:xlink="http://www.w3.org/1999/xlink" zoomAndPan="magnify" contentStyleType="text/css" viewBox="0 0 64.0 64.0" height="64.0px" preserveAspectRatio="xMidYMid meet" xmlns="http://www.w3.org/2000/svg" version="1.0">
<defs/>
<g id="0">
<polyline style="stroke-width:2.0;stroke:#000000;fill:#ffffff;" transform="matrix( 1, 0, 0, 1, 10.800000000000004, -1.8000000000000007)" points="30,3.2 2.6,3.2 2.6,57.4 40.2,57.4 40.2,12 29.8,3.2 "/>
<polyline style="stroke:#000000;fill:#ffffff;" transform="matrix( 1, 0, 0, 1.0283687935587351, 11, -1.439716313687691)" points="29.4,3.4 29.4,13 40,13 "/>
</g>
<g id="1">
<polyline style="stroke-width:2.0;stroke:#000000;fill:#ffffff;" transform="matrix( 1, 0, 0, 1, 6.800000000000004, 1.3999999999999995)" points="30,3.2 2.6,3.2 2.6,57.4 40.2,57.4 40.2,12 29.8,3.2 "/>
<polyline style="stroke:#000000;fill:#ffffff;" transform="matrix( 1, 0, 0, 1.0283687935587351, 7, 1.7602836863123095)" points="29.4,3.4 29.4,13 40,13 "/>
</g>
<g id="2">
<polyline style="stroke-width:2.0;stroke:#000000;fill:#ffffff;" transform="matrix( 1, 0, 0, 1, 2.6000000000000085, 4.799999999999999)" points="30,3.2 2.6,3.2 2.6,57.4 40.2,57.4 40.2,12 29.8,3.2 "/>
<polyline style="stroke:#000000;fill:#ffffff;" transform="matrix( 1, 0, 0, 1.0283687935587351, 2.8000000000000043, 5.160283686312309)" points="29.4,3.4 29.4,13 40,13 "/>
</g>
</svg>
